<?xml version="1.0" encoding="UTF-8"?>
<svg id="Layer_1" data-name="Layer 1" xmlns="http://www.w3.org/2000/svg" viewBox="0 0 1658 135.26">
  <defs>
    <style>
      .cls-1 {
        fill: #8b16e0;
      }
    </style>
  </defs>
  <rect class="cls-1" y="116" width="746" height="14"/>
  <rect class="cls-1" x="912" y="116" width="746" height="14"/>
  <path class="cls-1" d="M841.65,23.35c12.29,12.29,15.89,38.2,12.9,54.69-3.52,19.43-28.34,23.12-42.9,13.09-10.77,10.65-30.41,9.83-37.82-4.46-11.67-22.5,2.4-61.82,31.68-42.7,1.16-5.2,14.25-5.05,17.07-3.06,5.59,3.96.07,28.71,3.09,35.85,1.79,4.23,10.46,3.43,11.36-4.25,2.98-25.48-3.24-43.05-30.65-45.39-39.62-3.38-49.62,16.87-46.36,53.36,2.3,25.67,25.01,32.12,47.47,30.5,14.65-1.05,20.56-10.22,35.05-9.02,2.48.2,4.94.46,7.02,1.99,2.27,3.34-5.64,10.06-8.08,12.03-22.04,17.78-70.6,17.32-88.89-6.06-15.35-19.62-15.15-62.66.9-81.93,19.19-23.04,67.25-25.54,88.16-4.63ZM793.71,57.22c-7.76,1.77-9.03,23.04,2.94,23.43,9.74.31,10.8-10.44,9.13-17.93-1.2-5.36-7.26-6.59-12.07-5.5Z"/>
  <path class="cls-1" d="M266,107c-.77,1.21-25.18,1.49-28.55,1.05-1.4-.18-2.59-.23-3.55-1.45-3.56-4.52,1.91-43.4-2.38-47.62-4.35-2.22-8.64-1.78-9.46,3.59-1.87,12.23,1.57,28.61-.02,40.98-.21,1.61-.39,3.15-2.04,3.96s-23.46.95-26.55.54c-1.4-.18-2.59-.23-3.55-1.45-2.65-3.37.26-35.55-.96-43.04s-10.62-7.74-11.88,0c-1.22,7.49,1.69,39.67-.96,43.04-.96,1.22-2.15,1.27-3.55,1.45-4.26.56-22.1.67-26.05-.05-3.22-.58-3.31-3.79-3.55-6.45-1.42-15.83-1.32-46.18,0-62.09.17-2.02.06-4.86,2.27-5.79,2.34-.99,24.48-1.22,27.07-.46,3.69,1.08,2.15,5.19,3.2,7.79,10.22-12.11,34.71-13.79,42,2,11.77-14.93,35.66-15.94,45.02,1.99.85,1.63,3.49,7.18,3.49,8.51v53.5Z"/>
  <path class="cls-1" d="M1562,107c-.77,1.21-25.18,1.49-28.55,1.05-1.4-.18-2.59-.23-3.55-1.45-3.56-4.52,1.91-43.4-2.38-47.62-4.35-2.22-8.64-1.78-9.46,3.59-1.87,12.23,1.57,28.61-.02,40.98-.21,1.61-.39,3.15-2.04,3.96s-23.46.95-26.55.54c-1.4-.18-2.59-.23-3.55-1.45-2.65-3.37.26-35.55-.96-43.04s-10.62-7.74-11.88,0,1.69,39.67-.96,43.04c-.96,1.22-2.15,1.27-3.55,1.45-4.26.56-22.1.67-26.05-.05-3.22-.58-3.31-3.79-3.55-6.45-1.42-15.83-1.32-46.18,0-62.09.17-2.02.06-4.86,2.27-5.79,2.34-.99,24.48-1.22,27.07-.46,3.69,1.08,2.15,5.19,3.2,7.79,10.22-12.11,34.71-13.79,42,2,11.77-14.93,35.66-15.94,45.02,1.99.85,1.63,3.49,7.18,3.49,8.51v53.5Z"/>
  <path class="cls-1" d="M900,132.5c-.28.99-2.35,2.25-3.53,2.47-2.75.53-28.21.29-29.49-.46-.78-.46-1.19-1.62-1.54-2.46l.79-97.81c1.6-1.59,24.9-1.85,28.26-1.24,3.65.66,2.89,4.42,3.99,7,11.67-12.65,37.04-10.75,45.7,4.32,7.68,13.37,8.24,40.79-.76,53.62s-31.83,15.48-43.44,4.06v30.5ZM903.69,58.2c-5.38,1.64-7.23,27.44,4.6,25.62,7.12-1.1,6.53-14.9,5.66-20.26s-5.37-6.84-10.25-5.36Z"/>
  <path class="cls-1" d="M326,8.5c.28-.99,2.35-2.25,3.53-2.47,2.79-.53,27.89-.31,29.48.47.84.41,1.53,1.31,1.79,2.21-1.33,12.02,2.76,93.5-.7,97.9-.96,1.21-2.15,1.27-3.55,1.45-4.2.53-21.19.66-25.05-.05-3.36-.62-2.7-3.63-3.99-6-12.76,11.58-36.28,9.7-45.7-5.31-7.08-11.29-7.06-37.86-1.29-49.67,8.25-16.86,31.27-19.91,45.48-9.02V8.5ZM324.74,81.74c2.65-2.79,3.23-21.86-2.45-23.53-11.45-3.35-11.2,9.32-10.29,17.28.82,7.14,7.67,11.59,12.74,6.25Z"/>
  <path class="cls-1" d="M409,40c15.63-13.19,41.18-11.05,48.78,9.72,3.31,9.06,3.32,42.3,2.28,52.84-.28,2.81-.19,4.77-3.59,5.41-4.14.78-23.52.67-28.02.07-3.27-.43-4.06-1.19-4.5-4.5-1.67-12.73,1.71-28.53-.41-41.59-2.09-6.88-14.55-5.02-14.55,2.55v42.5c-5.4.77-30.79,2.42-34.01.51-.78-.46-1.19-1.62-1.54-2.46V8.95s2.05-2.95,2.05-2.95h32l1.5,1.5v32.5Z"/>
  <path class="cls-1" d="M519.74,81.74c3.87-4.06-1.31-43.72,2.5-47.51,1.55-1.13,3.39-1.13,5.22-1.28,6.16-.51,19.14-.71,25.1-.02,4.13.48,4.16,2.84,4.49,6.51,1.39,15.63,1.39,46.46,0,62.09-.33,3.66-.36,6.03-4.49,6.51-3.54.41-27.5.26-28.42-1.2l-.63-6.85c-14.51,15.15-42.79,12.38-49.78-9.23-2.61-8.05-2.97-44.18-1.77-53.32.44-3.31,1.23-4.07,4.5-4.5,4.97-.66,21.12-.65,26.09,0,1.4.18,2.59.23,3.55,1.45,2.87,3.65-.62,36.03,1.12,43.88,1.22,5.48,8.91,7.25,12.52,3.46Z"/>
  <path class="cls-1" d="M654,107c-.8,1.25-25.92,1.41-29.56,1.06-1.69-.16-3.32.09-4.54-1.46-2.65-3.36.26-35.55-.96-43.04-1.34-8.17-12.76-7.19-13.92-1.03-2.06,11.02,1.35,28.12,0,39.99-.39,3.4-.85,5.12-4.46,5.54-4.85.57-23.64.75-28.06-.06-3.22-.58-3.31-3.79-3.55-6.45-1.42-15.86-1.32-46.15,0-62.09.14-1.68.15-4.55,1.71-5.54,2.55-1.61,29.52-1.52,31.1.33l1.73,6.75c13.32-13.7,38.67-12.86,47.38,5.63.63,1.34,3.13,8.04,3.13,8.87v51.5Z"/>
  <path class="cls-1" d="M1382,107c-.8,1.25-25.92,1.41-29.56,1.06-1.69-.16-3.32.09-4.54-1.46-2.65-3.36.26-35.55-.96-43.04-1.34-8.17-12.76-7.19-13.92-1.03-2.06,11.02,1.35,28.12,0,39.99-.39,3.4-.85,5.12-4.46,5.54-4.85.57-23.64.75-28.06-.06-3.22-.58-3.31-3.79-3.55-6.45-1.42-15.86-1.32-46.15,0-62.09.14-1.68.15-4.55,1.71-5.54,2.55-1.61,29.52-1.52,31.1.33l1.73,6.75c13.32-13.7,38.67-12.86,47.38,5.63.63,1.34,3.13,8.04,3.13,8.87v51.5Z"/>
  <path class="cls-1" d="M1064.78,32.28c36.45-4.36,57.09,10.74,51.96,48.96-3.56,26.51-30.87,30.12-52.96,27.48-42.32-5.06-42.38-71.25,1-76.44ZM1070.24,84.75c1.89,2.19,8.99,2.15,10.5-1.51,2.58-6.25,3.92-33.79-8.75-27.74-4.33,2.06-3.91,26.76-1.75,29.25Z"/>
  <path class="cls-1" d="M1233.78,32.28c36.45-4.36,57.09,10.74,51.96,48.96-3.56,26.51-30.87,30.12-52.96,27.48-42.32-5.06-42.38-71.25,1-76.44ZM1239.24,84.75c1.89,2.19,8.99,2.15,10.5-1.51,2.58-6.25,3.92-33.79-8.75-27.74-4.33,2.06-3.91,26.76-1.75,29.25Z"/>
  <path class="cls-1" d="M55.5,56c-5.01-1.49,3.41-12.8,6.03-14.97,17.15-14.29,60.35-14.08,67.95,11,2.39,7.89,2.74,42.67,1.57,51.52-.43,3.27-1.19,4.06-4.5,4.5-4.11.54-21.23.64-25.02-.07-4.16-.78-3.1-3.89-4.02-6.97-14.07,15.97-49.9,8.2-48.09-16.01.96-12.82,12.28-18.62,23.37-21.72,3.65-1.02,22.46-3.42,23.08-4.42.8-1.28.47-6.07-1.5-6.73-5.23-1.76-9.04,3.87-9.86,3.87-5.84,0-25.07,1.17-29,0ZM96.99,77.01c-3.56.71-13.79,1.92-14.86,5.7,1.24,11.4,16.08,3.74,14.86-5.7Z"/>
  <path class="cls-1" d="M1607,79c.51,5.32,1.37,10.78,8.06,8.57,1.82-.6,2.83-2.56,3.98-3.04,2.08-.86,27.43-1.12,30.47-.53.8.15,1.55.2,2.07.93,1.84,13.33-17.03,22.66-28.18,23.96-24.73,2.89-48.87-4.36-51.38-32.41-2.93-32.71,18.69-47.52,49.47-44.47,16.88,1.67,30.63,15.84,32.39,32.61.25,2.4,1.03,14.38-2.38,14.38h-44.5ZM1619,61c.08-12.39-11.42-12.51-12,0h12Z"/>
  <path class="cls-1" d="M710,33h19.5c1.79,0,2.41,3.96,2.56,5.44.31,3.13.82,19.56-2.56,19.56h-19.5v19.5c0,.3,2.86,3.04,3.7,3.3,4.19,1.25,16.56-1.61,18.81,2.19,1.31,2.22,1.39,25.01-2.01,25.01h-26c-1.15,0-10.16-2.55-11.79-3.21-6.88-2.77-15.71-12.71-15.71-20.29v-26.5c-4.74-.66-11.24,1.61-15-1.5v-22.5l15-1V7.5l1.5-1.5h29c.18,0,2.5,2.32,2.5,2.5v24.5Z"/>
  <path class="cls-1" d="M1172,33h19.5c1.79,0,2.41,3.96,2.56,5.44.31,3.13.82,19.56-2.56,19.56h-19.5v19.5c0,.3,2.86,3.04,3.7,3.3,4.19,1.25,16.56-1.61,18.81,2.19,1.31,2.22,1.39,25.01-2.01,25.01h-26c-1.15,0-10.16-2.55-11.79-3.21-6.88-2.77-15.71-12.71-15.71-20.29v-26.5c-4.74-.66-11.24,1.61-15-1.5v-22.5l15-1V7.5l1.5-1.5h29c.18,0,2.5,2.32,2.5,2.5v24.5Z"/>
  <path class="cls-1" d="M993.76,34.25l1.73,6.75c8.85-6.83,19.39-9.57,30.52-7.5,1.49,1.34,1.79,3.12,2.01,4.99.39,3.4.55,19.2-.22,21.82-.48,1.62-1.74,2.38-3.33,2.67-6.35,1.19-21.79-2.32-25.97,3.03-4.61,5.91,1.71,38.43-3.49,41.51-1.35.8-29.35.99-31.35.32-2.35-.79-2.52-4.19-2.71-6.29-1.42-15.81-1.33-46.21,0-62.09.17-2.02.06-4.86,2.27-5.79,3-1.27,28.97-1.25,30.53.58Z"/>
  <path class="cls-1" d="M8.24,34.24c1.69-1.67,28.32-1.93,30.77-.74.84.41,1.53,1.31,1.79,2.21l-.29,70.3c-.51.86-1.23,1.51-2.21,1.79-2.29.67-24.95.72-27.8.2-1.58-.29-2.11-.83-2.76-2.24l.5-71.53Z"/>
  <path class="cls-1" d="M1396.7,75.2c2.58-.76,22.44-.69,25.84-.25,1.4.18,2.59.23,3.55,1.45,1.25,1.59,1.4,23.72.95,27.14-.18,1.4-.23,2.59-1.45,3.55-1.59,1.25-23.72,1.4-27.14.95-1.4-.18-2.59-.23-3.55-1.45-1.31-1.66-1.49-27.37-.41-29.6.41-.84,1.31-1.53,2.21-1.79Z"/>
  <path class="cls-1" d="M40,1v22.5l-1.5,1.5H10.5c-1.79,0-2.41-3.96-2.56-5.44-.31-3.13-.82-19.56,2.56-19.56h27c.33,0,1.52,1.32,2.5,1Z"/>
</svg>