<svg xmlns="http://www.w3.org/2000/svg" width="6913" height="568" viewBox="0 0 6913 568">
  <defs>
    <style>
      .cls-1, .cls-2 {
        fill: #8b16e0;
      }

      .cls-1 {
        fill-rule: evenodd;
      }
    </style>
  </defs>
  <path id="hello_dariohunt.com_copy" data-name="hello@dariohunt.com copy" class="cls-1" d="M165.571,468.39a16.72,16.72,0,0,0,16.523-16.523V287.251q0-16.522,8.261-25.09t22.949-8.568q14.686,0,22.642,8.568t7.956,25.09V451.867a16.718,16.718,0,0,0,16.522,16.523H380.368a16.72,16.72,0,0,0,16.523-16.523v-168.9q0-48.334-17.441-78.942T334.165,158.74a124.806,124.806,0,0,0-59.054-14.687,136.623,136.623,0,0,0-52.628,10.1q-24.483,10.1-40.389,27.844V50.424A16.719,16.719,0,0,0,165.571,33.9H46.24a15.881,15.881,0,0,0-11.627,4.9,15.875,15.875,0,0,0-4.9,11.627V451.867a15.843,15.843,0,0,0,4.9,11.627,15.845,15.845,0,0,0,11.627,4.9H165.571Zm521.387-3.978q31.209-10.1,51.4-25.4T768.654,407.5q10.1-16.207,10.709-27.844,0.6-6.109-3.365-9.791a14.329,14.329,0,0,0-10.1-3.672H650.241q-7.344,0-11.016,1.53t-9.179,7.037l-5.814,5.814a18.614,18.614,0,0,1-5.507,3.978,15.6,15.6,0,0,1-6.426,1.224q-8.577,0-14.075-4.284t-7.649-12.545a82.829,82.829,0,0,1-2.142-20.5v-3.059H770.8a16.72,16.72,0,0,0,16.523-16.523V310.505q0-45.281-18.665-82.92T711.436,167q-38.553-22.948-98.525-22.948-52.021,0-90.875,18.359-38.869,18.359-60.584,54.464T438.5,305.609v4.284q0,85.683,47.426,125.145t127.593,39.471Q655.748,474.509,686.958,464.412ZM588.433,268.28q0-13.453,2.754-22.03t8.261-12.545a24.771,24.771,0,0,1,26.926,0q5.508,3.987,8.262,12.545,2.754,8.577,2.753,22.03v0.612H588.433V268.28ZM956.219,468.39a16.718,16.718,0,0,0,16.522-16.523V50.424A16.717,16.717,0,0,0,956.219,33.9H846.678a16.717,16.717,0,0,0-16.522,16.523V451.867a16.718,16.718,0,0,0,16.522,16.523H956.219Zm197.661,0a16.709,16.709,0,0,0,16.52-16.523V50.424A16.709,16.709,0,0,0,1153.88,33.9H1044.34a16.709,16.709,0,0,0-16.52,16.523V451.867a16.709,16.709,0,0,0,16.52,16.523h109.54Zm335.35-9.18q38.55-15.288,59.06-45.9,20.49-30.594,23.56-75.271,1.215-14.07,1.22-29.068t-1.22-28.456q-3.075-45.279-25.09-75.576-22.035-30.293-60.59-45.591t-91.79-15.3q-53.235,0-91.79,15.3T1242,204.943q-22.02,30.291-25.09,75.576-0.615,13.468-.61,28.456,0,15,.61,29.068,3.06,44.677,23.56,75.271t59.06,45.9q38.55,15.29,94.85,15.3T1489.23,459.21ZM1372.65,366.5q-4.59-10.1-5.81-31.516-0.615-9.179-.61-25.7t0.61-25.7q1.215-20.195,5.81-30.9t21.73-10.709q17.745,0,22.03,10.709t5.51,30.9q0.6,9.18.61,25.7t-0.61,25.7q-1.245,21.429-5.51,31.516-4.29,10.1-22.03,10.1Q1377.235,376.6,1372.65,366.5Zm583.81,176.549q40.08-11.631,68.23-30.9t45.9-40.695a45.86,45.86,0,0,0,3.06-4.59,9.142,9.142,0,0,0,1.22-4.59q0.615-7.945-4.59-12.545a17.506,17.506,0,0,0-11.93-4.59h-59.97a23.091,23.091,0,0,0-10.4,2.142,84.7,84.7,0,0,0-11.02,7.038,122.478,122.478,0,0,1-26.62,15.605q-13.77,5.808-33.96,8.261t-53.85,2.448q-84.45,0-123.62-34.27t-45.9-94.241q-1.23-11.618-1.53-30.9t0-38.247q0.3-18.961,1.53-29.374,4.275-36.717,21.12-66.091,16.815-29.375,49.87-46.509t86.29-17.135q63.015,0,99.13,13.463t52.02,42.225q15.9,28.772,17.75,74.047,1.215,15.3.91,30.6t-0.3,31.822a41.792,41.792,0,0,1-2.76,15.911,21.575,21.575,0,0,1-8.56,10.4q-5.82,3.672-15,3.672-13.455,0-20.19-7.956t-6.73-22.642V197.293a16.727,16.727,0,0,0-16.52-16.523h-44.07a16.727,16.727,0,0,0-16.52,16.523V202.8a63.594,63.594,0,0,0-23.56-20.195q-13.77-6.726-37.02-6.731-45.3,0-69.46,34.575-24.18,34.581-24.17,90.876,0,55.692,25.39,90.263t71.3,34.576q28.755,0,44.67-5.508t23.87-13.463a77.625,77.625,0,0,0,12.24-15.3q6.105,6.741,17.13,13.157t27.23,10.71a142.593,142.593,0,0,0,36.41,4.283q23.25,0,46.21-10.709a98.852,98.852,0,0,0,38.55-32.128q15.6-21.414,17.44-52.016,0.6-11.014.92-24.478,0.3-13.454.3-26.62a204.888,204.888,0,0,0-1.22-23.561,311.242,311.242,0,0,0-16.52-76.494,177.059,177.059,0,0,0-40.08-64.256q-27.24-28.14-73.13-44.06T1850.29,49.812q-57.54,0-100.36,17.747-42.855,17.756-71.6,46.815a208.879,208.879,0,0,0-44.06,64.561,228.429,228.429,0,0,0-18.36,71.6q-0.615,7.961-.92,22.031t-0.31,29.986q0,15.92.31,29.985,0.3,14.085.92,22.643,4.89,54.474,31.51,100.055t79.56,72.516q52.92,26.922,135.55,26.927Q1916.365,554.676,1956.46,543.048ZM1830.4,347.834q-8.88-4.273-13.77-15.605-4.905-11.316-4.9-30.9,0-29.976,11.02-40.7,11.01-10.7,27.54-10.71,17.73,0,28.45,10.71t10.71,40.7q0,29.99-10.71,40.389t-28.45,10.4A45.082,45.082,0,0,1,1830.4,347.834Zm487.42,116.578a109.2,109.2,0,0,0,36.72-26.62v14.075a16.709,16.709,0,0,0,16.52,16.523h104.03a16.727,16.727,0,0,0,16.53-16.523V50.424A16.726,16.726,0,0,0,2475.09,33.9H2361.88a16.709,16.709,0,0,0-16.52,16.523V172.815a106.677,106.677,0,0,0-35.19-21.113q-20.505-7.644-46.2-7.649a142.292,142.292,0,0,0-49.57,8.567,113.261,113.261,0,0,0-40.69,25.7q-17.445,17.139-27.85,43.754T2134.23,284.8q-0.615,13.467-.61,23.866t0.61,24.478q1.845,38.555,12.24,65.48,10.41,26.935,27.85,43.755a105.356,105.356,0,0,0,40.39,24.478,154.881,154.881,0,0,0,49.26,7.649Q2295.785,474.509,2317.82,464.412Zm-20.5-103.727a23.4,23.4,0,0,1-9.18-12.239,88.745,88.745,0,0,1-3.98-18.97,223.309,223.309,0,0,1,0-40.389,88.875,88.875,0,0,1,3.98-18.971,23.476,23.476,0,0,1,9.18-12.239q6.42-4.275,17.44-4.284,10.395,0,16.83,3.672a24.209,24.209,0,0,1,9.79,10.4,42.949,42.949,0,0,1,3.98,16.523q1.215,13.467,1.22,22.336t-1.22,22.949a70.078,70.078,0,0,1-3.37,18.97,23.3,23.3,0,0,1-9.18,12.239q-6.42,4.288-18.05,4.284Q2303.75,364.969,2297.32,360.685Zm386.45,108.929a107.006,107.006,0,0,0,29.68-13.769,82.422,82.422,0,0,0,21.73-21.113v17.135a16.709,16.709,0,0,0,16.52,16.523h107.09a16.709,16.709,0,0,0,16.52-16.523V276.236q0-31.21-10.09-55.994a104.806,104.806,0,0,0-30.3-41.614q-20.19-16.824-51.09-25.7t-72.52-8.873q-42.84,0-73.13,9.791t-49.57,24.479q-19.275,14.686-28.45,30.291t-9.8,27.232q-0.615,6.125,3.37,9.792a14.292,14.292,0,0,0,10.1,3.671h104.03q10.395,0,17.13-6.731a71.852,71.852,0,0,1,11.33-9.485q5.19-3.357,13.76-3.366,12.855,0,15.61,7.343t2.75,23.255v0.612l-64.86,10.4q-61.2,10.413-97.61,35.8t-36.41,70.069a86.044,86.044,0,0,0,14.99,49.569q14.985,22.031,41.92,34.881t61.81,12.851A124.507,124.507,0,0,0,2683.77,469.614Zm-5.81-88.122a19.392,19.392,0,0,1-7.96-6.426,14.339,14.339,0,0,1-2.75-8.261q0-6.726,5.51-12.851,5.5-6.11,21.41-9.791l36.11-7.956v0.612q0,15.921-4.9,26.62-4.9,10.714-13.77,15.6t-21.11,4.9A29.2,29.2,0,0,1,2677.96,381.492Zm382.16,86.9a16.727,16.727,0,0,0,16.53-16.523V315.4q0-18.359,9.18-27.538t27.53-9.18h78.95a16.725,16.725,0,0,0,16.52-16.522V166.7a16.725,16.725,0,0,0-16.52-16.522h-29.38a129.421,129.421,0,0,0-51.71,10.4,165.291,165.291,0,0,0-43.75,27.538V166.7a16.725,16.725,0,0,0-16.53-16.522H2943.85a16.725,16.725,0,0,0-16.52,16.522V451.867a16.727,16.727,0,0,0,16.52,16.523h116.27Zm310.27,0a16.727,16.727,0,0,0,16.52-16.523V166.7a16.725,16.725,0,0,0-16.52-16.522H3260.85a16.725,16.725,0,0,0-16.53,16.522V451.867a16.727,16.727,0,0,0,16.53,16.523h109.54Zm-3.06-351.875a16.727,16.727,0,0,0,16.52-16.523V25.945a15.918,15.918,0,0,0-4.9-11.627,15.9,15.9,0,0,0-11.62-4.9H3263.91a15.877,15.877,0,0,0-11.63,4.9,15.88,15.88,0,0,0-4.9,11.627V99.992a16.727,16.727,0,0,0,16.53,16.523h103.42Zm338.41,342.7q38.55-15.288,59.05-45.9t23.56-75.271q1.215-14.07,1.23-29.068,0-14.988-1.23-28.456-3.06-45.279-25.09-75.576t-60.58-45.591q-38.55-15.29-91.8-15.3t-91.79,15.3q-38.55,15.3-60.58,45.591t-25.09,75.576q-0.615,13.468-.61,28.456,0,15,.61,29.068,3.045,44.677,23.56,75.271,20.49,30.607,59.05,45.9t94.85,15.3Q3667.175,474.509,3705.74,459.21ZM3589.16,366.5q-4.59-10.1-5.81-31.516-0.615-9.179-.62-25.7t0.62-25.7q1.215-20.195,5.81-30.9t21.72-10.709q17.745,0,22.03,10.709t5.51,30.9q0.6,9.18.61,25.7t-0.61,25.7q-1.23,21.429-5.51,31.516t-22.03,10.1Q3593.75,376.6,3589.16,366.5ZM3970.71,468.39a16.727,16.727,0,0,0,16.53-16.523V287.251q0-16.522,8.26-25.09t22.95-8.568q14.685,0,22.64,8.568t7.96,25.09V451.867a16.709,16.709,0,0,0,16.52,16.523h119.94a16.709,16.709,0,0,0,16.52-16.523v-168.9q0-48.334-17.44-78.942t-45.28-45.285a124.823,124.823,0,0,0-59.06-14.687,136.6,136.6,0,0,0-52.62,10.1q-24.495,10.1-40.39,27.844V50.424A16.726,16.726,0,0,0,3970.71,33.9H3851.38a16.726,16.726,0,0,0-16.52,16.523V451.867a16.727,16.727,0,0,0,16.52,16.523h119.33Zm458.36-3.978q26.925-10.1,42.22-32.74v20.195a16.727,16.727,0,0,0,16.53,16.523h107.09a16.709,16.709,0,0,0,16.52-16.523V166.7a16.708,16.708,0,0,0-16.52-16.522H4478.64a16.708,16.708,0,0,0-16.52,16.522V331.312q0,16.522-7.96,25.09t-22.64,8.567q-30.615,0-30.6-33.657V166.7a16.725,16.725,0,0,0-16.52-16.522H4267.51a16.725,16.725,0,0,0-16.52,16.522V335.6q0,48.349,16.83,78.943t44.06,45.284a120.023,120.023,0,0,0,57.83,14.687Q4402.14,474.509,4429.07,464.412Zm370.23,3.978a16.727,16.727,0,0,0,16.53-16.523V287.251q0-16.522,7.95-25.09t22.64-8.568q14.7,0,22.65,8.568t7.95,25.09V451.867a16.727,16.727,0,0,0,16.52,16.523h116.89a16.709,16.709,0,0,0,16.52-16.523v-168.9q0-48.334-16.83-78.942t-43.75-45.285a119.53,119.53,0,0,0-58.14-14.687q-32.445,0-59.36,12.545-26.94,12.551-42.22,30.292V166.7a16.725,16.725,0,0,0-16.53-16.522H4683.03a16.708,16.708,0,0,0-16.52,16.522V451.867a16.709,16.709,0,0,0,16.52,16.523H4799.3Zm543.42,0a16.709,16.709,0,0,0,16.52-16.523V371.7a16.708,16.708,0,0,0-16.52-16.523h-55.69q-13.47,0-19.89-8.262t-6.42-22.336V257.265h77.1a16.727,16.727,0,0,0,16.53-16.523V166.7a16.725,16.725,0,0,0-16.53-16.522h-77.1V50.424A16.726,16.726,0,0,0,5244.2,33.9H5137.1a16.726,16.726,0,0,0-16.52,16.523v99.749h-48.34a16.725,16.725,0,0,0-16.53,16.522v74.047a16.727,16.727,0,0,0,16.53,16.523h48.34v79.554q0,50.185,19.89,78.943,19.875,28.772,54.46,40.695t78.64,11.933h69.15Zm180.53,0a16.727,16.727,0,0,0,16.52-16.523V345.387a16.725,16.725,0,0,0-16.52-16.523H5416.77a16.725,16.725,0,0,0-16.53,16.523v106.48a16.727,16.727,0,0,0,16.53,16.523h106.48Zm302.3-3.366q29.985-9.48,50.8-24.478,20.79-14.988,33.35-31.516,12.525-16.522,18.36-30.9,5.8-14.371,6.42-22.336a13.657,13.657,0,0,0-4.59-11.627,16.935,16.935,0,0,0-11.93-4.9H5798.63q-6.75,0-11.02,3.366a22.784,22.784,0,0,0-6.73,8.873,57.277,57.277,0,0,1-7.65,13.463q-3.99,4.9-14.99,4.9-14.085,0-18.67-9.486t-5.81-29.067q-0.615-17.126,0-43.449,0.6-18.358,5.51-28.762,4.89-10.4,18.97-10.4,9.18,0,13.77,4.9a57.27,57.27,0,0,1,8.87,13.463,31.246,31.246,0,0,0,7.04,8.874c2.65,2.247,6.21,3.365,10.71,3.365h119.33a16.9,16.9,0,0,0,11.93-4.9,13.638,13.638,0,0,0,4.59-11.628q-0.615-12.234-10.71-31.821t-31.21-39.471q-21.105-19.879-55.07-33.658t-82.31-13.769q-46.515,0-84.76,16.217T5609.23,208q-22.95,31.525-25.4,76.8-0.615,10.413-.61,25.09t0.61,24.478q2.445,45.3,25.7,76.5t61.2,47.426q37.935,16.208,84.45,16.217Q5795.56,474.509,5825.55,465.024Zm411.85-5.814q38.55-15.288,59.05-45.9t23.56-75.271q1.23-14.07,1.23-29.068t-1.23-28.456q-3.06-45.279-25.09-75.576t-60.58-45.591q-38.55-15.29-91.79-15.3t-91.8,15.3q-38.55,15.3-60.58,45.591t-25.09,75.576q-0.615,13.468-.61,28.456,0,15,.61,29.068,3.06,44.677,23.56,75.271t59.05,45.9q38.565,15.29,94.86,15.3T6237.4,459.21ZM6120.82,366.5q-4.59-10.1-5.81-31.516-0.615-9.179-.61-25.7t0.61-25.7q1.215-20.195,5.81-30.9t21.73-10.709q17.745,0,22.03,10.709t5.51,30.9q0.6,9.18.61,25.7t-0.61,25.7q-1.245,21.429-5.51,31.516-4.29,10.1-22.03,10.1Q6125.405,376.6,6120.82,366.5ZM6493.2,468.39a16.709,16.709,0,0,0,16.52-16.523V283.579q0-9.781,3.06-16.217a24.5,24.5,0,0,1,8.57-10.1,22.605,22.605,0,0,1,12.85-3.672q7.95,0,13.16,3.366a23.04,23.04,0,0,1,8.26,10.1q3.045,6.741,3.06,16.523V451.867a16.709,16.709,0,0,0,16.52,16.523h107.7a16.727,16.727,0,0,0,16.53-16.523V283.579a43.9,43.9,0,0,1,2.75-16.523,20.535,20.535,0,0,1,8.26-10.1,24.21,24.21,0,0,1,12.85-3.366q7.95,0,13.16,3.366a22.972,22.972,0,0,1,8.26,10.1q3.06,6.741,3.06,16.523V451.867a16.727,16.727,0,0,0,16.52,16.523H6872a16.709,16.709,0,0,0,16.52-16.523V280.519q0-48.335-15.3-78.33-15.3-29.976-40.69-44.061-25.41-14.07-56.61-14.075a108.781,108.781,0,0,0-53.85,14.381q-25.71,14.385-39.78,35.8-24.48-52.623-96.69-50.18-29.985,1.233-52.32,14.993t-32.74,27.844V166.7a16.708,16.708,0,0,0-16.52-16.522H6383.05a16.725,16.725,0,0,0-16.53,16.522V451.867a16.727,16.727,0,0,0,16.53,16.523H6493.2Z"/>
  <rect class="cls-2" x="2" y="500" width="1623" height="58"/>
  <rect id="Rectangle_1_copy" data-name="Rectangle 1 copy" class="cls-2" x="2083" y="500" width="4828" height="58"/>
</svg>
